<mxfile host="app.diagrams.net" modified="2021-10-13T09:09:48.413Z" agent="5.0 (Macintosh)" etag="wquZ7763jylE_adaAIV2" version="15.5.2" type="github">
  <diagram id="C5RBs43oDa-KdzZeNtuy" name="Page-1">
    <mxGraphModel dx="1341" dy="739" grid="1" gridSize="10" guides="1" tooltips="1" connect="1" arrows="1" fold="1" page="1" pageScale="1" pageWidth="827" pageHeight="1169" math="0" shadow="0">
      <root>
        <mxCell id="WIyWlLk6GJQsqaUBKTNV-0" />
        <mxCell id="WIyWlLk6GJQsqaUBKTNV-1" parent="WIyWlLk6GJQsqaUBKTNV-0" />
        <mxCell id="fKOOHy5h0nJEQBp-Pf1Z-2" value="" style="rounded=0;whiteSpace=wrap;html=1;" vertex="1" parent="WIyWlLk6GJQsqaUBKTNV-1">
          <mxGeometry x="50" y="170" width="680" height="480" as="geometry" />
        </mxCell>
        <mxCell id="fKOOHy5h0nJEQBp-Pf1Z-3" value="FeeServiceProxyService" style="text;html=1;strokeColor=none;fillColor=none;align=center;verticalAlign=middle;whiteSpace=wrap;rounded=0;" vertex="1" parent="WIyWlLk6GJQsqaUBKTNV-1">
          <mxGeometry x="90" y="180" width="60" height="30" as="geometry" />
        </mxCell>
        <mxCell id="fKOOHy5h0nJEQBp-Pf1Z-7" value="" style="edgeStyle=orthogonalEdgeStyle;rounded=0;orthogonalLoop=1;jettySize=auto;html=1;" edge="1" parent="WIyWlLk6GJQsqaUBKTNV-1" source="fKOOHy5h0nJEQBp-Pf1Z-5" target="fKOOHy5h0nJEQBp-Pf1Z-6">
          <mxGeometry relative="1" as="geometry" />
        </mxCell>
        <mxCell id="fKOOHy5h0nJEQBp-Pf1Z-5" value="&lt;div&gt;&lt;span&gt;&lt;span class=&quot;s&quot;&gt;id: &lt;span style=&quot;white-space: pre&quot;&gt;	&lt;/span&gt;fdpGetFeeDetailsParentProd&lt;/span&gt;&lt;/span&gt;&lt;/div&gt;&lt;div&gt;&lt;span&gt;&lt;span class=&quot;s&quot;&gt;class:&lt;/span&gt;&lt;/span&gt;&lt;span&gt;&lt;span class=&quot;s&quot;&gt;&lt;span&gt;&lt;span class=&quot;s&quot;&gt;&lt;span style=&quot;white-space: pre&quot;&gt;	&lt;/span&gt;com.amazon.coral.service.Activity&lt;/span&gt;&lt;/span&gt;&lt;/span&gt;&lt;/span&gt;&lt;/div&gt;" style="rounded=0;whiteSpace=wrap;html=1;" vertex="1" parent="WIyWlLk6GJQsqaUBKTNV-1">
          <mxGeometry x="210" y="210" width="360" height="30" as="geometry" />
        </mxCell>
        <mxCell id="fKOOHy5h0nJEQBp-Pf1Z-15" style="edgeStyle=orthogonalEdgeStyle;rounded=0;orthogonalLoop=1;jettySize=auto;html=1;exitX=0.5;exitY=1;exitDx=0;exitDy=0;" edge="1" parent="WIyWlLk6GJQsqaUBKTNV-1" source="fKOOHy5h0nJEQBp-Pf1Z-6" target="fKOOHy5h0nJEQBp-Pf1Z-10">
          <mxGeometry relative="1" as="geometry" />
        </mxCell>
        <mxCell id="fKOOHy5h0nJEQBp-Pf1Z-6" value="&lt;div&gt;&lt;span&gt;&lt;span class=&quot;s&quot;&gt;id :&lt;span style=&quot;white-space: pre&quot;&gt;	&lt;/span&gt;callingFdpOrFcsGetFeeDetailsDeciderProd&lt;/span&gt;&lt;/span&gt;&lt;/div&gt;&lt;div&gt;&lt;span&gt;&lt;span class=&quot;s&quot;&gt;class:&lt;/span&gt;&lt;/span&gt;&lt;span&gt;&lt;span class=&quot;s&quot;&gt;&lt;span&gt;&lt;span class=&quot;s&quot;&gt;&lt;span style=&quot;white-space: pre&quot;&gt;	&lt;/span&gt;org.springframework.beans.factory.config.MethodInvokingFactoryBean&lt;/span&gt;&lt;/span&gt;&lt;/span&gt;&lt;/span&gt;&lt;/div&gt;" style="rounded=0;whiteSpace=wrap;html=1;" vertex="1" parent="WIyWlLk6GJQsqaUBKTNV-1">
          <mxGeometry x="150" y="270" width="480" height="30" as="geometry" />
        </mxCell>
        <mxCell id="fKOOHy5h0nJEQBp-Pf1Z-21" style="edgeStyle=orthogonalEdgeStyle;rounded=0;orthogonalLoop=1;jettySize=auto;html=1;exitX=0.5;exitY=1;exitDx=0;exitDy=0;entryX=0.5;entryY=0;entryDx=0;entryDy=0;" edge="1" parent="WIyWlLk6GJQsqaUBKTNV-1" source="fKOOHy5h0nJEQBp-Pf1Z-8" target="fKOOHy5h0nJEQBp-Pf1Z-20">
          <mxGeometry relative="1" as="geometry" />
        </mxCell>
        <mxCell id="fKOOHy5h0nJEQBp-Pf1Z-23" value="5%" style="edgeLabel;html=1;align=center;verticalAlign=middle;resizable=0;points=[];" vertex="1" connectable="0" parent="fKOOHy5h0nJEQBp-Pf1Z-21">
          <mxGeometry y="2" relative="1" as="geometry">
            <mxPoint as="offset" />
          </mxGeometry>
        </mxCell>
        <mxCell id="fKOOHy5h0nJEQBp-Pf1Z-22" style="edgeStyle=orthogonalEdgeStyle;rounded=0;orthogonalLoop=1;jettySize=auto;html=1;exitX=1;exitY=0.5;exitDx=0;exitDy=0;entryX=0;entryY=0.5;entryDx=0;entryDy=0;" edge="1" parent="WIyWlLk6GJQsqaUBKTNV-1" source="fKOOHy5h0nJEQBp-Pf1Z-8" target="fKOOHy5h0nJEQBp-Pf1Z-9">
          <mxGeometry relative="1" as="geometry">
            <Array as="points">
              <mxPoint x="420" y="415" />
              <mxPoint x="420" y="485" />
            </Array>
          </mxGeometry>
        </mxCell>
        <mxCell id="fKOOHy5h0nJEQBp-Pf1Z-32" value="100%" style="edgeLabel;html=1;align=center;verticalAlign=middle;resizable=0;points=[];" vertex="1" connectable="0" parent="fKOOHy5h0nJEQBp-Pf1Z-22">
          <mxGeometry x="-0.2211" y="1" relative="1" as="geometry">
            <mxPoint as="offset" />
          </mxGeometry>
        </mxCell>
        <mxCell id="fKOOHy5h0nJEQBp-Pf1Z-8" value="&lt;div&gt;&lt;span&gt;&lt;span class=&quot;s&quot;&gt;getFeeDetailsRoutingToBothV1AndV2FdpProdClient&lt;/span&gt;&lt;/span&gt;&lt;/div&gt;" style="rounded=0;whiteSpace=wrap;html=1;" vertex="1" parent="WIyWlLk6GJQsqaUBKTNV-1">
          <mxGeometry x="70" y="400" width="320" height="30" as="geometry" />
        </mxCell>
        <mxCell id="fKOOHy5h0nJEQBp-Pf1Z-27" style="edgeStyle=orthogonalEdgeStyle;rounded=0;orthogonalLoop=1;jettySize=auto;html=1;entryX=0.5;entryY=0;entryDx=0;entryDy=0;" edge="1" parent="WIyWlLk6GJQsqaUBKTNV-1" source="fKOOHy5h0nJEQBp-Pf1Z-9" target="fKOOHy5h0nJEQBp-Pf1Z-24">
          <mxGeometry relative="1" as="geometry">
            <Array as="points">
              <mxPoint x="605" y="540" />
              <mxPoint x="385" y="540" />
            </Array>
          </mxGeometry>
        </mxCell>
        <mxCell id="fKOOHy5h0nJEQBp-Pf1Z-9" value="&lt;div&gt;&lt;span&gt;&lt;span class=&quot;s&quot;&gt;getFeeDetailsFDPServiceClient&lt;/span&gt;&lt;/span&gt;&lt;br&gt;&lt;/div&gt;" style="rounded=0;whiteSpace=wrap;html=1;" vertex="1" parent="WIyWlLk6GJQsqaUBKTNV-1">
          <mxGeometry x="510" y="470" width="190" height="30" as="geometry" />
        </mxCell>
        <mxCell id="fKOOHy5h0nJEQBp-Pf1Z-16" value="" style="edgeStyle=orthogonalEdgeStyle;rounded=0;orthogonalLoop=1;jettySize=auto;html=1;" edge="1" parent="WIyWlLk6GJQsqaUBKTNV-1" source="fKOOHy5h0nJEQBp-Pf1Z-10" target="fKOOHy5h0nJEQBp-Pf1Z-8">
          <mxGeometry relative="1" as="geometry">
            <Array as="points">
              <mxPoint x="230" y="335" />
            </Array>
          </mxGeometry>
        </mxCell>
        <mxCell id="fKOOHy5h0nJEQBp-Pf1Z-18" value="WebLab On" style="edgeLabel;html=1;align=center;verticalAlign=middle;resizable=0;points=[];" vertex="1" connectable="0" parent="fKOOHy5h0nJEQBp-Pf1Z-16">
          <mxGeometry x="0.1714" y="-1" relative="1" as="geometry">
            <mxPoint as="offset" />
          </mxGeometry>
        </mxCell>
        <mxCell id="fKOOHy5h0nJEQBp-Pf1Z-17" style="edgeStyle=orthogonalEdgeStyle;rounded=0;orthogonalLoop=1;jettySize=auto;html=1;" edge="1" parent="WIyWlLk6GJQsqaUBKTNV-1" source="fKOOHy5h0nJEQBp-Pf1Z-10" target="fKOOHy5h0nJEQBp-Pf1Z-9">
          <mxGeometry relative="1" as="geometry" />
        </mxCell>
        <mxCell id="fKOOHy5h0nJEQBp-Pf1Z-19" value="Weblab Off" style="edgeLabel;html=1;align=center;verticalAlign=middle;resizable=0;points=[];" vertex="1" connectable="0" parent="fKOOHy5h0nJEQBp-Pf1Z-17">
          <mxGeometry x="0.2348" y="-2" relative="1" as="geometry">
            <mxPoint as="offset" />
          </mxGeometry>
        </mxCell>
        <mxCell id="fKOOHy5h0nJEQBp-Pf1Z-10" value="&lt;span&gt;&lt;span class=&quot;s&quot;&gt;getFeeDetailsWeblabHelper&lt;/span&gt;&lt;/span&gt;" style="rounded=0;whiteSpace=wrap;html=1;" vertex="1" parent="WIyWlLk6GJQsqaUBKTNV-1">
          <mxGeometry x="290" y="320" width="200" height="30" as="geometry" />
        </mxCell>
        <mxCell id="fKOOHy5h0nJEQBp-Pf1Z-31" style="edgeStyle=orthogonalEdgeStyle;rounded=0;orthogonalLoop=1;jettySize=auto;html=1;" edge="1" parent="WIyWlLk6GJQsqaUBKTNV-1" source="fKOOHy5h0nJEQBp-Pf1Z-20" target="fKOOHy5h0nJEQBp-Pf1Z-24">
          <mxGeometry relative="1" as="geometry" />
        </mxCell>
        <mxCell id="fKOOHy5h0nJEQBp-Pf1Z-20" value="&lt;div&gt;&lt;span&gt;&lt;span class=&quot;s&quot;&gt;getFeeDetailsFDPServiceV2Client&lt;/span&gt;&lt;/span&gt;&lt;br&gt;&lt;/div&gt;" style="rounded=0;whiteSpace=wrap;html=1;" vertex="1" parent="WIyWlLk6GJQsqaUBKTNV-1">
          <mxGeometry x="135" y="480" width="190" height="30" as="geometry" />
        </mxCell>
        <mxCell id="fKOOHy5h0nJEQBp-Pf1Z-24" value="&lt;span&gt;&lt;span class=&quot;s&quot;&gt;fdpServiceRawClient&lt;/span&gt;&lt;/span&gt;" style="rounded=0;whiteSpace=wrap;html=1;" vertex="1" parent="WIyWlLk6GJQsqaUBKTNV-1">
          <mxGeometry x="320" y="570" width="130" height="40" as="geometry" />
        </mxCell>
      </root>
    </mxGraphModel>
  </diagram>
</mxfile>
